<svg width="16" height="16" viewBox="0 0 16 16" fill="none" xmlns="http://www.w3.org/2000/svg">
<path d="M0.0855908 5.67377C0.0789892 3.26494 1.75146 1.32718 3.99784 1.04318C5.46859 0.85724 6.74336 1.30183 7.8029 2.34081C7.9109 2.44668 7.95427 2.43077 8.05469 2.33497C9.35477 1.09447 10.8877 0.679549 12.5991 1.22032C14.3346 1.76876 15.3621 3.00299 15.7032 4.79518C15.8288 5.4547 15.7561 6.11447 15.6582 6.76874C15.3726 8.67781 14.8728 10.5302 14.1435 12.3183C13.7935 13.1764 13.3862 14.0055 12.8109 14.7405C12.6146 14.9914 12.3968 15.2223 12.1344 15.4054C12.0309 15.4776 11.9213 15.5443 11.807 15.5972C11.312 15.8263 10.9398 15.7613 10.548 15.3807C10.222 15.0639 9.98792 14.6804 9.76762 14.2876C9.55552 13.9095 9.37546 13.5155 9.19608 13.1213C8.9467 12.5731 8.5259 12.2682 7.91907 12.27C7.31921 12.2717 6.90218 12.5748 6.65437 13.116C6.34845 13.784 6.04025 14.4509 5.59512 15.0422C5.48048 15.1945 5.35192 15.3339 5.20893 15.4613C4.89125 15.7444 4.53781 15.7919 4.1471 15.6431C3.77593 15.5018 3.48453 15.2525 3.22462 14.9627C2.72912 14.4102 2.36705 13.7713 2.05373 13.1048C1.21259 11.3154 0.673465 9.43085 0.308223 7.49317C0.18673 6.84863 0.0970165 6.19961 0.0855908 5.67377ZM4.63887 7.42428C4.83294 6.31069 5.49516 5.66057 6.62555 5.45795C5.68208 5.34899 4.80496 4.68117 4.6409 3.49231C4.44188 4.60962 3.79036 5.26841 2.67441 5.46282C3.78702 5.66015 4.44154 6.31514 4.63887 7.42428Z" fill="#FF6913"/>
</svg>
