<svg width="137" height="20" viewBox="0 0 137 20" fill="none" xmlns="http://www.w3.org/2000/svg">
<path d="M0.605957 19.7297H6.36271C12.5519 19.7297 16.4708 15.6487 16.4708 10.2703C16.4708 4.89189 12.5519 0.81081 6.36271 0.81081H0.605957V19.7297ZM6.36271 4C10.2816 4 12.5789 6.78378 12.5789 10.2703C12.5789 13.9189 10.2816 16.5405 6.36271 16.5405H4.49785V4H6.36271Z" fill="#181842"/>
<path d="M25.1008 5.94595C20.7224 6 18.1818 9.2973 18.1818 13C18.1818 17.3514 21.2629 20 26.1278 20C27.7224 20 29.344 19.6216 30.7764 18.8378L30.1008 16C28.9386 16.5405 27.5602 16.8108 26.1278 16.8108C23.5872 16.7838 22.3981 15.973 22.1278 14.1081H31.7224V12.4865C31.6413 8.21622 28.9656 5.94595 25.1008 5.94595ZM25.2359 9.13514C26.5872 9.13514 27.6413 9.81081 27.8035 11.5676H22.2359C22.5872 10 23.5332 9.13514 25.2359 9.13514Z" fill="#181842"/>
<path d="M50.1684 9.18919H52.1414V14.8378C52.1414 18.0541 54.2765 19.8649 57.1684 19.8649C58.1684 19.8649 59.3036 19.6487 60.0603 19.2973L59.5198 16.1892C59.0603 16.3514 58.4387 16.4595 57.8171 16.4595C56.763 16.4595 56.0333 15.9189 56.0333 14.6216V9.18919H59.3847V6.21622H56.0333V1.89189H52.1414V6.21622H50.1684V9.18919Z" fill="#181842"/>
<path d="M67.832 5.94595C64.0211 5.94595 61.0482 9.05406 61.0482 12.973C61.0482 16.8919 63.913 20 67.5617 20C69.2914 20 70.6968 19.3243 71.5347 18.3784L71.6968 18.4324V19.7297H75.5887V6.21622H71.6968V7.05406L71.5617 7.13514C70.6968 6.43243 69.5347 5.94595 67.832 5.94595ZM68.3184 16.8108C66.4536 16.8108 64.9401 15.1892 64.9401 12.973C64.9401 10.7297 66.4536 9.13514 68.3184 9.13514C69.6968 9.13514 70.859 9.48649 71.6968 10.0541V14.973C70.9941 16.3243 69.6968 16.8108 68.3184 16.8108Z" fill="#181842"/>
<path d="M84.9273 16.5676C83.684 16.4865 82.9813 15.9189 82.9813 14.6757V0H79.0894V15.1081C79.0894 18.3243 80.8192 19.973 84.657 19.973L84.9273 16.5676Z" fill="#181842"/>
<path d="M98.4554 0.81081H96.4554L91.7798 16.3784L91.6446 17.1351H91.4825L91.3744 16.3784L88.1581 0.81081H85.8068L90.3473 19.7297H92.6446L97.2662 4.78378L97.3744 4.16216H97.5365L97.6446 4.78378L102.266 19.7297H104.564L109.104 0.81081H106.753L103.537 16.3784L103.428 17.1351H103.266L103.131 16.3784L98.4554 0.81081Z" fill="#FF6913"/>
<path d="M116.112 5.94595C112.247 6 109.626 9.2973 109.626 13C109.626 17.3514 112.707 20 116.923 20C118.464 20 119.977 19.6757 121.355 19.0541L120.896 17.2973C119.734 17.8378 118.355 18.1081 116.923 18.1081C113.68 18.0541 111.95 16.3514 111.788 13.2432H122.085V11.6216C121.68 7.97297 119.599 5.94595 116.112 5.94595ZM116.139 7.83784C118.193 7.83784 119.788 9.13514 119.896 11.3514H111.95C112.437 9.40541 113.923 7.83784 116.139 7.83784Z" fill="#FF6913"/>
<path d="M129.485 18.0811C128.241 18 127.322 17.4324 127.322 16.1892V0H125.16V16.1892C125.16 18.6487 126.755 19.973 129.214 19.973L129.485 18.0811Z" fill="#FF6913"/>
<path d="M136.894 18.0811C135.651 18 134.732 17.4324 134.732 16.1892V0H132.57V16.1892C132.57 18.6487 134.164 19.973 136.624 19.973L136.894 18.0811Z" fill="#FF6913"/>
<path d="M33.0856 9.67377C33.079 7.26494 34.7515 5.32718 36.9978 5.04318C38.4686 4.85724 39.7434 5.30183 40.8029 6.34081C40.9109 6.44668 40.9543 6.43077 41.0547 6.33497C42.3548 5.09447 43.8877 4.67955 45.5991 5.22032C47.3346 5.76876 48.3621 7.00299 48.7032 8.79518C48.8288 9.4547 48.7561 10.1145 48.6582 10.7687C48.3726 12.6778 47.8728 14.5302 47.1435 16.3183C46.7935 17.1764 46.3862 18.0055 45.8109 18.7405C45.6146 18.9914 45.3968 19.2223 45.1344 19.4054C45.0309 19.4776 44.9213 19.5443 44.807 19.5972C44.312 19.8263 43.9398 19.7613 43.548 19.3807C43.222 19.0639 42.9879 18.6804 42.7676 18.2876C42.5555 17.9095 42.3755 17.5155 42.1961 17.1213C41.9467 16.5731 41.5259 16.2682 40.9191 16.27C40.3192 16.2717 39.9022 16.5748 39.6544 17.116C39.3485 17.784 39.0403 18.4509 38.5951 19.0422C38.4805 19.1945 38.3519 19.3339 38.2089 19.4613C37.8912 19.7444 37.5378 19.7919 37.1471 19.6431C36.7759 19.5018 36.4845 19.2525 36.2246 18.9627C35.7291 18.4102 35.3671 17.7713 35.0537 17.1048C34.2126 15.3154 33.6735 13.4308 33.3082 11.4932C33.1867 10.8486 33.097 10.1996 33.0856 9.67377ZM37.6389 11.4243C37.8329 10.3107 38.4952 9.66057 39.6255 9.45795C38.6821 9.34899 37.805 8.68117 37.6409 7.49231C37.4419 8.60962 36.7904 9.26841 35.6744 9.46282C36.787 9.66015 37.4415 10.3151 37.6389 11.4243Z" fill="#FF6913"/>
</svg>
