<svg width="12" height="12" viewBox="0 0 12 12" fill="none" xmlns="http://www.w3.org/2000/svg">
<path d="M9.26921 7.55193C9.20204 7.61911 9.11012 7.66153 9.00405 7.66153C8.79899 7.66153 8.62928 7.49183 8.62928 7.28677L8.62928 3.36939L4.71191 3.3694C4.50685 3.3694 4.33715 3.19969 4.33715 2.99463C4.33715 2.78957 4.50685 2.61986 4.71191 2.61986L9.00405 2.61986C9.20911 2.61986 9.37882 2.78957 9.37882 2.99463L9.37882 7.28677C9.37882 7.39283 9.33639 7.48476 9.26921 7.55193Z" fill="#00A17B"/>
<path d="M9.20942 3.3195L3.25912 9.2698C3.11416 9.41476 2.87374 9.41476 2.72879 9.2698C2.58383 9.12485 2.58383 8.88443 2.72879 8.73947L8.67909 2.78917C8.82405 2.64421 9.06446 2.64421 9.20942 2.78917C9.35438 2.93413 9.35438 3.17454 9.20942 3.3195Z" fill="#00A17B"/>
</svg>
