<svg width="28" height="28" viewBox="0 0 28 28" fill="none" xmlns="http://www.w3.org/2000/svg">
<path d="M16.835 21.9567C16.6133 21.9567 16.3916 21.875 16.2166 21.7C15.8783 21.3617 15.8783 20.8017 16.2166 20.4633L22.68 14L16.2166 7.53668C15.8783 7.19835 15.8783 6.63835 16.2166 6.30001C16.555 5.96168 17.115 5.96168 17.4533 6.30001L24.535 13.3817C24.8733 13.72 24.8733 14.28 24.535 14.6183L17.4533 21.7C17.2783 21.875 17.0566 21.9567 16.835 21.9567Z" fill="#181842"/>
<path d="M23.7184 14.875H4.08337C3.60504 14.875 3.20837 14.4783 3.20837 14C3.20837 13.5217 3.60504 13.125 4.08337 13.125H23.7184C24.1967 13.125 24.5934 13.5217 24.5934 14C24.5934 14.4783 24.1967 14.875 23.7184 14.875Z" fill="#181842"/>
</svg>
