<svg width="32" height="32" viewBox="0 0 32 32" fill="none" xmlns="http://www.w3.org/2000/svg">
<path d="M19.2401 25.0932C18.9867 25.0932 18.7334 24.9999 18.5334 24.7999C18.1467 24.4132 18.1467 23.7732 18.5334 23.3866L25.9201 15.9999L18.5334 8.61325C18.1467 8.22658 18.1467 7.58658 18.5334 7.19991C18.9201 6.81325 19.5601 6.81325 19.9467 7.19991L28.0401 15.2932C28.4267 15.6799 28.4267 16.3199 28.0401 16.7066L19.9467 24.7999C19.7467 24.9999 19.4934 25.0932 19.2401 25.0932Z" fill="#FF6913"/>
<path d="M27.1067 17H4.66675C4.12008 17 3.66675 16.5467 3.66675 16C3.66675 15.4533 4.12008 15 4.66675 15H27.1067C27.6534 15 28.1067 15.4533 28.1067 16C28.1067 16.5467 27.6534 17 27.1067 17Z" fill="#FF6913"/>
</svg>
