<svg width="36" height="36" viewBox="0 0 36 36" fill="none" xmlns="http://www.w3.org/2000/svg">
<path d="M18 31.875H10.5C5.025 31.875 1.875 28.725 1.875 23.25V12.75C1.875 7.275 5.025 4.125 10.5 4.125H25.5C30.975 4.125 34.125 7.275 34.125 12.75V17.25C34.125 17.865 33.615 18.375 33 18.375C32.385 18.375 31.875 17.865 31.875 17.25V12.75C31.875 8.46 29.79 6.375 25.5 6.375H10.5C6.21 6.375 4.125 8.46 4.125 12.75V23.25C4.125 27.54 6.21 29.625 10.5 29.625H18C18.615 29.625 19.125 30.135 19.125 30.75C19.125 31.365 18.615 31.875 18 31.875Z" fill="#292D32"/>
<path d="M17.9997 19.3049C16.7397 19.3049 15.4647 18.9149 14.4897 18.1199L9.79467 14.3699C9.31467 13.9799 9.22467 13.275 9.61467 12.795C10.0047 12.315 10.7097 12.24 11.1897 12.615L15.8847 16.365C17.0247 17.28 18.9597 17.28 20.0997 16.365L24.7947 12.615C25.2747 12.225 25.9796 12.3 26.3696 12.795C26.7596 13.275 26.6847 13.9949 26.1897 14.3699L21.4946 18.1199C20.5346 18.9149 19.2597 19.3049 17.9997 19.3049Z" fill="#292D32"/>
<path d="M23.7301 32.6699C23.1601 32.6699 22.6201 32.4599 22.2301 32.0699C21.7651 31.6049 21.5551 30.9299 21.6601 30.2249L21.9451 28.1999C22.0201 27.6749 22.3351 27.0449 22.7101 26.6699L28.0201 21.3599C28.7401 20.6399 29.4451 20.2649 30.2101 20.1899C31.1401 20.0999 32.0701 20.4899 32.9401 21.3599C33.8101 22.2299 34.2001 23.1449 34.1101 24.0899C34.0351 24.8399 33.6451 25.5599 32.9401 26.2799L27.6301 31.5899C27.2551 31.9649 26.6251 32.2799 26.1001 32.3549L24.0751 32.6399C23.9551 32.6549 23.8501 32.6699 23.7301 32.6699ZM30.4651 22.4249C30.4501 22.4249 30.4351 22.4249 30.4201 22.4249C30.2101 22.4399 29.9251 22.6349 29.6101 22.9499L24.3001 28.2599C24.2551 28.3049 24.1801 28.4549 24.1801 28.5149L23.9101 30.3899L25.7851 30.1199C25.8451 30.1049 25.9951 30.0299 26.0401 29.9849L31.3501 24.6749C31.6651 24.3449 31.8601 24.0749 31.8751 23.8649C31.9051 23.5649 31.6051 23.2049 31.3501 22.9499C31.1101 22.7099 30.7651 22.4249 30.4651 22.4249Z" fill="#292D32"/>
<path d="M31.3801 27.3749C31.2751 27.3749 31.1701 27.3599 31.0801 27.3299C29.1001 26.7749 27.5251 25.1999 26.9701 23.2199C26.8051 22.6199 27.1501 22.0049 27.7501 21.8249C28.3501 21.6599 28.9651 22.0049 29.1301 22.6049C29.4751 23.8349 30.4501 24.8099 31.6801 25.1549C32.2801 25.3199 32.6251 25.9499 32.4601 26.5499C32.3251 27.0449 31.8751 27.3749 31.3801 27.3749Z" fill="#292D32"/>
</svg>
