<svg width="32" height="32" viewBox="0 0 32 32" fill="none" xmlns="http://www.w3.org/2000/svg">
<path d="M25.4264 26.4266C25.173 26.4266 24.9197 26.3333 24.7197 26.1333C24.333 25.7466 24.333 25.1066 24.7197 24.7199C29.533 19.9066 29.533 12.08 24.7197 7.27999C24.333 6.89332 24.333 6.25333 24.7197 5.86666C25.1064 5.47999 25.7464 5.47999 26.133 5.86666C31.7197 11.4533 31.7197 20.5466 26.133 26.1333C25.933 26.3333 25.6797 26.4266 25.4264 26.4266Z" fill="#F7BF4E"/>
<path d="M6.57306 26.4266C6.31972 26.4266 6.06639 26.3333 5.86639 26.1333C0.279725 20.5466 0.279725 11.4533 5.86639 5.86666C6.25306 5.47999 6.89305 5.47999 7.27972 5.86666C7.66639 6.25333 7.66639 6.89332 7.27972 7.27999C2.46639 12.0933 2.46639 19.9199 7.27972 24.7199C7.66639 25.1066 7.66639 25.7466 7.27972 26.1333C7.07972 26.3333 6.82639 26.4266 6.57306 26.4266Z" fill="#F7BF4E"/>
<path d="M15.9997 30.2799C14.3331 30.2666 12.7464 29.9999 11.2664 29.4799C10.7464 29.2932 10.4664 28.7199 10.653 28.1999C10.8397 27.6799 11.3997 27.3999 11.9331 27.5866C13.2131 28.0266 14.5731 28.2666 16.0131 28.2666C17.4397 28.2666 18.8131 28.0266 20.0797 27.5866C20.5997 27.4132 21.173 27.6799 21.3597 28.1999C21.5464 28.7199 21.2664 29.2932 20.7464 29.4799C19.2531 29.9999 17.6664 30.2799 15.9997 30.2799Z" fill="#F7BF4E"/>
<path d="M20.4 4.45343C20.2933 4.45343 20.1733 4.44004 20.0666 4.40004C18.7866 3.96004 17.4133 3.72003 15.9866 3.72003C14.56 3.72003 13.2 3.96004 11.92 4.40004C11.4 4.57338 10.8267 4.30676 10.64 3.78676C10.4533 3.26676 10.7333 2.6934 11.2533 2.50673C12.7333 1.98673 14.3333 1.72003 15.9866 1.72003C17.64 1.72003 19.24 1.98673 20.72 2.50673C21.24 2.6934 21.52 3.26676 21.3333 3.78676C21.2 4.2001 20.8133 4.45343 20.4 4.45343Z" fill="#F7BF4E"/>
<path d="M14.0804 22.3467C13.4937 22.3467 12.9337 22.2 12.4403 21.92C11.2937 21.2534 10.6537 19.9467 10.6537 18.24V13.7734C10.6537 12.0667 11.2803 10.76 12.4403 10.0934C13.587 9.4267 15.0404 9.53333 16.5204 10.3867L20.387 12.6134C21.867 13.4667 22.6804 14.6667 22.6804 16C22.6804 17.3334 21.867 18.5333 20.387 19.3867L16.5204 21.6134C15.6804 22.1067 14.8404 22.3467 14.0804 22.3467ZM14.0804 11.6533C13.8404 11.6533 13.6137 11.7067 13.4403 11.8133C12.947 12.1067 12.6537 12.8134 12.6537 13.76V18.2267C12.6537 19.1733 12.9337 19.8934 13.4403 20.1734C13.9337 20.4534 14.6937 20.3467 15.5204 19.88L19.387 17.6533C20.2137 17.1733 20.6804 16.5734 20.6804 16C20.6804 15.4267 20.2137 14.8267 19.387 14.3467L15.5204 12.1201C14.9871 11.8134 14.4937 11.6533 14.0804 11.6533Z" fill="#F7BF4E"/>
</svg>
