<svg width="40" height="40" viewBox="0 0 40 40" fill="none" xmlns="http://www.w3.org/2000/svg">
<path d="M30.8992 14.827C30.6753 14.6031 30.3688 14.4616 30.0153 14.4616C29.3318 14.4616 28.7661 15.0273 28.7661 15.7109L28.7661 28.7688L15.7082 28.7688C15.0246 28.7688 14.4589 29.3344 14.4589 30.018C14.4589 30.7015 15.0246 31.2672 15.7082 31.2672L30.0153 31.2672C30.6988 31.2672 31.2645 30.7015 31.2645 30.018L31.2645 15.7109C31.2645 15.3573 31.1231 15.0509 30.8992 14.827Z" fill="#7AD2E7"/>
<path d="M30.6991 28.9341L10.8648 9.09977C10.3816 8.61658 9.58021 8.61658 9.09702 9.09977C8.61383 9.58296 8.61383 10.3843 9.09702 10.8675L28.9314 30.7019C29.4146 31.1851 30.2159 31.1851 30.6991 30.7019C31.1823 30.2187 31.1823 29.4173 30.6991 28.9341Z" fill="#7AD2E7"/>
</svg>
