<svg width="40" height="40" viewBox="0 0 40 40" fill="none" xmlns="http://www.w3.org/2000/svg">
<path d="M30.8992 25.173C30.6753 25.3969 30.3688 25.5384 30.0153 25.5384C29.3318 25.5384 28.7661 24.9727 28.7661 24.2891L28.7661 11.2312L15.7082 11.2312C15.0246 11.2312 14.4589 10.6655 14.4589 9.98201C14.4589 9.29847 15.0246 8.73279 15.7082 8.73279L30.0153 8.73279C30.6988 8.73279 31.2645 9.29847 31.2645 9.98201L31.2645 24.2891C31.2645 24.6427 31.1231 24.9491 30.8992 25.173Z" fill="#FF6913"/>
<path d="M30.6991 11.0659L10.8648 30.9002C10.3816 31.3834 9.58021 31.3834 9.09702 30.9002C8.61383 30.417 8.61383 29.6156 9.09702 29.1325L28.9314 9.29811C29.4146 8.81492 30.2159 8.81492 30.6991 9.29811C31.1823 9.7813 31.1823 10.5827 30.6991 11.0659Z" fill="#FF6913"/>
</svg>
