<svg width="279" height="112" viewBox="0 0 279 112" fill="none" xmlns="http://www.w3.org/2000/svg">
<path d="M28.0001 16H14.5861C11.8987 16 10.6096 19.2271 12.4252 21.0827C12.5552 21.2156 12.6878 21.3471 12.8039 21.4924L28.0001 40.5V16Z" fill="#7AD2E7"/>
<g filter="url(#filter0_d_201_260)">
<path d="M22 16H221C236.085 16 243.627 16 248.314 20.6863C253 25.3726 253 32.9151 253 48C253 63.0849 253 70.6274 248.314 75.3137C243.627 80 236.085 80 221 80H54C38.9151 80 31.3726 80 26.6863 75.3137C22 70.6274 22 63.0849 22 48V16Z" fill="#7AD2E7" shape-rendering="crispEdges"/>
<path d="M38.9588 44V35.2727H42.0696C42.7457 35.2727 43.3068 35.3892 43.7528 35.6222C44.2017 35.8551 44.5369 36.1776 44.7585 36.5895C44.9801 36.9986 45.0909 37.4716 45.0909 38.0085C45.0909 38.5426 44.9787 39.0128 44.7543 39.419C44.5327 39.8224 44.1974 40.1364 43.7486 40.3608C43.3026 40.5852 42.7415 40.6974 42.0653 40.6974H39.7088V39.5639H41.946C42.3722 39.5639 42.7188 39.5028 42.9858 39.3807C43.2557 39.2585 43.4531 39.081 43.5781 38.848C43.7031 38.6151 43.7656 38.3352 43.7656 38.0085C43.7656 37.679 43.7017 37.3935 43.5739 37.152C43.4489 36.9105 43.2514 36.7259 42.9815 36.598C42.7145 36.4673 42.3636 36.402 41.929 36.402H40.2756V44H38.9588ZM43.267 40.0625L45.4233 44H43.9233L41.8097 40.0625H43.267ZM49.0878 44.1321C48.4429 44.1321 47.8875 43.9943 47.4216 43.7188C46.9585 43.4403 46.6006 43.0497 46.3477 42.5469C46.0977 42.0412 45.9727 41.4489 45.9727 40.7699C45.9727 40.0994 46.0977 39.5085 46.3477 38.9972C46.6006 38.4858 46.9529 38.0866 47.4046 37.7997C47.8591 37.5128 48.3904 37.3693 48.9983 37.3693C49.3676 37.3693 49.7256 37.4304 50.0722 37.5526C50.4188 37.6747 50.7298 37.8665 51.0054 38.1278C51.281 38.3892 51.4983 38.7287 51.6574 39.1463C51.8165 39.5611 51.896 40.0653 51.896 40.6591V41.1108H46.6929V40.1562H50.6475C50.6475 39.821 50.5793 39.5241 50.4429 39.2656C50.3065 39.0043 50.1148 38.7983 49.8676 38.6477C49.6233 38.4972 49.3364 38.4219 49.0068 38.4219C48.6489 38.4219 48.3364 38.5099 48.0693 38.6861C47.8051 38.8594 47.6006 39.0866 47.4557 39.3679C47.3136 39.6463 47.2426 39.9489 47.2426 40.2756V41.0213C47.2426 41.4588 47.3193 41.831 47.4727 42.1378C47.629 42.4446 47.8463 42.679 48.1247 42.8409C48.4031 43 48.7284 43.0795 49.1006 43.0795C49.3421 43.0795 49.5622 43.0455 49.7611 42.9773C49.96 42.9062 50.1318 42.8011 50.2767 42.6619C50.4216 42.5227 50.5324 42.3509 50.6091 42.1463L51.8151 42.3636C51.7185 42.7187 51.5452 43.0298 51.2952 43.2969C51.048 43.5611 50.7369 43.767 50.3619 43.9148C49.9898 44.0597 49.5651 44.1321 49.0878 44.1321ZM53.0676 44V37.4545H54.2906V38.5199H54.3716C54.508 38.1591 54.731 37.8778 55.0406 37.6761C55.3503 37.4716 55.721 37.3693 56.1529 37.3693C56.5904 37.3693 56.9568 37.4716 57.2523 37.6761C57.5506 37.8807 57.7708 38.1619 57.9128 38.5199H57.981C58.1372 38.1705 58.3858 37.892 58.7267 37.6847C59.0676 37.4744 59.4739 37.3693 59.9455 37.3693C60.5392 37.3693 61.0236 37.5554 61.3986 37.9276C61.7764 38.2997 61.9654 38.8608 61.9654 39.6108V44H60.6912V39.7301C60.6912 39.2869 60.5705 38.9659 60.329 38.767C60.0875 38.5682 59.7992 38.4688 59.4639 38.4688C59.0492 38.4688 58.7267 38.5966 58.4966 38.8523C58.2665 39.1051 58.1514 39.4304 58.1514 39.8281V44H56.8816V39.6491C56.8816 39.294 56.7708 39.0085 56.5492 38.7926C56.3276 38.5767 56.0392 38.4688 55.6841 38.4688C55.4426 38.4688 55.2196 38.5327 55.0151 38.6605C54.8134 38.7855 54.65 38.9602 54.525 39.1847C54.4029 39.4091 54.3418 39.669 54.3418 39.9645V44H53.0676ZM63.431 44V37.4545H64.7051V44H63.431ZM64.0745 36.4446C63.8529 36.4446 63.6625 36.3707 63.5034 36.223C63.3472 36.0724 63.2691 35.8935 63.2691 35.6861C63.2691 35.4759 63.3472 35.2969 63.5034 35.1491C63.6625 34.9986 63.8529 34.9233 64.0745 34.9233C64.2961 34.9233 64.485 34.9986 64.6412 35.1491C64.8003 35.2969 64.8799 35.4759 64.8799 35.6861C64.8799 35.8935 64.8003 36.0724 64.6412 36.223C64.485 36.3707 64.2961 36.4446 64.0745 36.4446ZM67.4513 40.1136V44H66.1772V37.4545H67.4002V38.5199H67.4812C67.6317 38.1733 67.8675 37.8949 68.1885 37.6847C68.5124 37.4744 68.9201 37.3693 69.4115 37.3693C69.8576 37.3693 70.2482 37.4631 70.5834 37.6506C70.9187 37.8352 71.1786 38.1108 71.3633 38.4773C71.5479 38.8437 71.6402 39.2969 71.6402 39.8366V44H70.3661V39.9901C70.3661 39.5156 70.2425 39.1449 69.9954 38.8778C69.7482 38.608 69.4087 38.473 68.9769 38.473C68.6814 38.473 68.4187 38.5369 68.1885 38.6648C67.9613 38.7926 67.7809 38.9801 67.6473 39.2273C67.5167 39.4716 67.4513 39.767 67.4513 40.1136ZM75.5572 44.1278C75.0288 44.1278 74.5572 43.9929 74.1425 43.723C73.7305 43.4503 73.4067 43.0625 73.1709 42.5597C72.9379 42.054 72.8214 41.4474 72.8214 40.7401C72.8214 40.0327 72.9393 39.4276 73.1751 38.9247C73.4138 38.4219 73.7405 38.0369 74.1552 37.7699C74.57 37.5028 75.0402 37.3693 75.5658 37.3693C75.972 37.3693 76.2987 37.4375 76.5459 37.5739C76.7959 37.7074 76.989 37.8636 77.1254 38.0426C77.2646 38.2216 77.3726 38.3793 77.4493 38.5156H77.526V35.2727H78.8001V44H77.5558V42.9815H77.4493C77.3726 43.1207 77.2618 43.2798 77.1169 43.4588C76.9748 43.6378 76.7788 43.794 76.5288 43.9276C76.2788 44.0611 75.955 44.1278 75.5572 44.1278ZM75.8385 43.0412C76.205 43.0412 76.5146 42.9446 76.7675 42.7514C77.0231 42.5554 77.2163 42.2841 77.347 41.9375C77.4805 41.5909 77.5473 41.1875 77.5473 40.7273C77.5473 40.2727 77.4819 39.875 77.3513 39.5341C77.2206 39.1932 77.0288 38.9276 76.776 38.7372C76.5231 38.5469 76.2106 38.4517 75.8385 38.4517C75.455 38.4517 75.1354 38.5511 74.8797 38.75C74.624 38.9489 74.4308 39.2202 74.3001 39.5639C74.1723 39.9077 74.1084 40.2955 74.1084 40.7273C74.1084 41.1648 74.1737 41.5582 74.3044 41.9077C74.4351 42.2571 74.6283 42.5341 74.8839 42.7386C75.1425 42.9403 75.4606 43.0412 75.8385 43.0412ZM83.1976 44.1321C82.5527 44.1321 81.9973 43.9943 81.5314 43.7188C81.0683 43.4403 80.7104 43.0497 80.4575 42.5469C80.2075 42.0412 80.0825 41.4489 80.0825 40.7699C80.0825 40.0994 80.2075 39.5085 80.4575 38.9972C80.7104 38.4858 81.0626 38.0866 81.5143 37.7997C81.9689 37.5128 82.5001 37.3693 83.1081 37.3693C83.4774 37.3693 83.8354 37.4304 84.182 37.5526C84.5285 37.6747 84.8396 37.8665 85.1152 38.1278C85.3908 38.3892 85.6081 38.7287 85.7672 39.1463C85.9263 39.5611 86.0058 40.0653 86.0058 40.6591V41.1108H80.8027V40.1562H84.7572C84.7572 39.821 84.6891 39.5241 84.5527 39.2656C84.4163 39.0043 84.2246 38.7983 83.9774 38.6477C83.7331 38.4972 83.4462 38.4219 83.1166 38.4219C82.7587 38.4219 82.4462 38.5099 82.1791 38.6861C81.9149 38.8594 81.7104 39.0866 81.5655 39.3679C81.4234 39.6463 81.3524 39.9489 81.3524 40.2756V41.0213C81.3524 41.4588 81.4291 41.831 81.5825 42.1378C81.7388 42.4446 81.9561 42.679 82.2345 42.8409C82.5129 43 82.8382 43.0795 83.2104 43.0795C83.4518 43.0795 83.672 43.0455 83.8709 42.9773C84.0697 42.9062 84.2416 42.8011 84.3865 42.6619C84.5314 42.5227 84.6422 42.3509 84.7189 42.1463L85.9249 42.3636C85.8283 42.7187 85.655 43.0298 85.405 43.2969C85.1578 43.5611 84.8467 43.767 84.4717 43.9148C84.0996 44.0597 83.6749 44.1321 83.1976 44.1321ZM87.1774 44V37.4545H88.409V38.4943H88.4771C88.5965 38.142 88.8067 37.8651 89.1078 37.6634C89.4118 37.4588 89.7555 37.3565 90.1391 37.3565C90.2186 37.3565 90.3124 37.3594 90.4203 37.3651C90.5311 37.3707 90.6178 37.3778 90.6803 37.3864V38.6051C90.6291 38.5909 90.5382 38.5753 90.4075 38.5582C90.2769 38.5384 90.1462 38.5284 90.0155 38.5284C89.7144 38.5284 89.4459 38.5923 89.2101 38.7202C88.9771 38.8452 88.7925 39.0199 88.6561 39.2443C88.5198 39.4659 88.4516 39.7187 88.4516 40.0028V44H87.1774ZM92.3803 44.081C92.1473 44.081 91.947 43.9986 91.7794 43.8338C91.6118 43.6662 91.528 43.4645 91.528 43.2287C91.528 42.9957 91.6118 42.7969 91.7794 42.6321C91.947 42.4645 92.1473 42.3807 92.3803 42.3807C92.6132 42.3807 92.8135 42.4645 92.9811 42.6321C93.1487 42.7969 93.2325 42.9957 93.2325 43.2287C93.2325 43.3849 93.1928 43.5284 93.1132 43.6591C93.0365 43.7869 92.9342 43.8892 92.8064 43.9659C92.6786 44.0426 92.5365 44.081 92.3803 44.081ZM92.3803 39.3168C92.1473 39.3168 91.947 39.233 91.7794 39.0653C91.6118 38.8977 91.528 38.6974 91.528 38.4645C91.528 38.2315 91.6118 38.0327 91.7794 37.8679C91.947 37.7003 92.1473 37.6165 92.3803 37.6165C92.6132 37.6165 92.8135 37.7003 92.9811 37.8679C93.1487 38.0327 93.2325 38.2315 93.2325 38.4645C93.2325 38.6207 93.1928 38.7642 93.1132 38.8949C93.0365 39.0227 92.9342 39.125 92.8064 39.2017C92.6786 39.2784 92.5365 39.3168 92.3803 39.3168ZM97.0598 35.2727H98.5555L100.835 39.2401H100.929L103.209 35.2727H104.705L101.538 40.5739V44H100.226V40.5739L97.0598 35.2727ZM107.283 44.1321C106.669 44.1321 106.133 43.9915 105.676 43.7102C105.219 43.429 104.863 43.0355 104.611 42.5298C104.358 42.0241 104.231 41.4332 104.231 40.7571C104.231 40.0781 104.358 39.4844 104.611 38.9759C104.863 38.4673 105.219 38.0724 105.676 37.7912C106.133 37.5099 106.669 37.3693 107.283 37.3693C107.896 37.3693 108.432 37.5099 108.889 37.7912C109.346 38.0724 109.702 38.4673 109.954 38.9759C110.207 39.4844 110.334 40.0781 110.334 40.7571C110.334 41.4332 110.207 42.0241 109.954 42.5298C109.702 43.0355 109.346 43.429 108.889 43.7102C108.432 43.9915 107.896 44.1321 107.283 44.1321ZM107.287 43.0625C107.685 43.0625 108.014 42.9574 108.275 42.7472C108.537 42.5369 108.73 42.2571 108.855 41.9077C108.983 41.5582 109.047 41.1733 109.047 40.7528C109.047 40.3352 108.983 39.9517 108.855 39.6023C108.73 39.25 108.537 38.9673 108.275 38.7543C108.014 38.5412 107.685 38.4347 107.287 38.4347C106.886 38.4347 106.554 38.5412 106.29 38.7543C106.028 38.9673 105.834 39.25 105.706 39.6023C105.581 39.9517 105.518 40.3352 105.518 40.7528C105.518 41.1733 105.581 41.5582 105.706 41.9077C105.834 42.2571 106.028 42.5369 106.29 42.7472C106.554 42.9574 106.886 43.0625 107.287 43.0625ZM115.66 41.2855V37.4545H116.938V44H115.686V42.8665H115.617C115.467 43.2159 115.225 43.5071 114.893 43.7401C114.563 43.9702 114.153 44.0852 113.661 44.0852C113.241 44.0852 112.869 43.9929 112.545 43.8082C112.224 43.6207 111.971 43.3438 111.786 42.9773C111.605 42.6108 111.514 42.1577 111.514 41.6179V37.4545H112.788V41.4645C112.788 41.9105 112.911 42.2656 113.159 42.5298C113.406 42.794 113.727 42.9261 114.122 42.9261C114.36 42.9261 114.598 42.8665 114.833 42.7472C115.072 42.6278 115.269 42.4474 115.426 42.206C115.585 41.9645 115.663 41.6577 115.66 41.2855ZM118.408 44V37.4545H119.64V38.4943H119.708C119.827 38.142 120.038 37.8651 120.339 37.6634C120.643 37.4588 120.987 37.3565 121.37 37.3565C121.45 37.3565 121.543 37.3594 121.651 37.3651C121.762 37.3707 121.849 37.3778 121.911 37.3864V38.6051C121.86 38.5909 121.769 38.5753 121.638 38.5582C121.508 38.5384 121.377 38.5284 121.246 38.5284C120.945 38.5284 120.677 38.5923 120.441 38.7202C120.208 38.8452 120.023 39.0199 119.887 39.2443C119.751 39.4659 119.683 39.7187 119.683 40.0028V44H118.408ZM126.98 40.1136V44H125.705V37.4545H126.928V38.5199H127.009C127.16 38.1733 127.396 37.8949 127.717 37.6847C128.041 37.4744 128.448 37.3693 128.94 37.3693C129.386 37.3693 129.776 37.4631 130.112 37.6506C130.447 37.8352 130.707 38.1108 130.892 38.4773C131.076 38.8437 131.168 39.2969 131.168 39.8366V44H129.894V39.9901C129.894 39.5156 129.771 39.1449 129.524 38.8778C129.276 38.608 128.937 38.473 128.505 38.473C128.21 38.473 127.947 38.5369 127.717 38.6648C127.49 38.7926 127.309 38.9801 127.176 39.2273C127.045 39.4716 126.98 39.767 126.98 40.1136ZM135.456 44.1321C134.811 44.1321 134.256 43.9943 133.79 43.7188C133.327 43.4403 132.969 43.0497 132.716 42.5469C132.466 42.0412 132.341 41.4489 132.341 40.7699C132.341 40.0994 132.466 39.5085 132.716 38.9972C132.969 38.4858 133.321 38.0866 133.773 37.7997C134.228 37.5128 134.759 37.3693 135.367 37.3693C135.736 37.3693 136.094 37.4304 136.441 37.5526C136.787 37.6747 137.098 37.8665 137.374 38.1278C137.649 38.3892 137.867 38.7287 138.026 39.1463C138.185 39.5611 138.264 40.0653 138.264 40.6591V41.1108H133.061V40.1562H137.016C137.016 39.821 136.948 39.5241 136.811 39.2656C136.675 39.0043 136.483 38.7983 136.236 38.6477C135.992 38.4972 135.705 38.4219 135.375 38.4219C135.017 38.4219 134.705 38.5099 134.438 38.6861C134.174 38.8594 133.969 39.0866 133.824 39.3679C133.682 39.6463 133.611 39.9489 133.611 40.2756V41.0213C133.611 41.4588 133.688 41.831 133.841 42.1378C133.997 42.4446 134.215 42.679 134.493 42.8409C134.772 43 135.097 43.0795 135.469 43.0795C135.71 43.0795 135.931 43.0455 136.13 42.9773C136.328 42.9062 136.5 42.8011 136.645 42.6619C136.79 42.5227 136.901 42.3509 136.978 42.1463L138.183 42.3636C138.087 42.7187 137.914 43.0298 137.664 43.2969C137.416 43.5611 137.105 43.767 136.73 43.9148C136.358 44.0597 135.933 44.1321 135.456 44.1321ZM140.289 37.4545L141.734 40.0028L143.191 37.4545H144.585L142.544 40.7273L144.602 44H143.208L141.734 41.554L140.264 44H138.866L140.903 40.7273L138.892 37.4545H140.289ZM148.706 37.4545V38.4773H145.131V37.4545H148.706ZM146.09 35.8864H147.364V42.0781C147.364 42.3253 147.401 42.5114 147.475 42.6364C147.549 42.7585 147.644 42.8423 147.76 42.8878C147.88 42.9304 148.009 42.9517 148.148 42.9517C148.25 42.9517 148.34 42.9446 148.417 42.9304C148.493 42.9162 148.553 42.9048 148.596 42.8963L148.826 43.9489C148.752 43.9773 148.647 44.0057 148.51 44.0341C148.374 44.0653 148.204 44.0824 147.999 44.0852C147.664 44.0909 147.351 44.0312 147.061 43.9062C146.772 43.7812 146.537 43.5881 146.358 43.3267C146.179 43.0653 146.09 42.7372 146.09 42.3423V35.8864ZM154.712 44.1449C154.297 44.1449 153.922 44.0682 153.587 43.9148C153.252 43.7585 152.986 43.5327 152.79 43.2372C152.597 42.9418 152.501 42.5795 152.501 42.1506C152.501 41.7812 152.572 41.4773 152.714 41.2386C152.856 41 153.047 40.8111 153.289 40.6719C153.53 40.5327 153.8 40.4276 154.099 40.3565C154.397 40.2855 154.701 40.2315 155.011 40.1946C155.403 40.1491 155.721 40.1122 155.965 40.0838C156.209 40.0526 156.387 40.0028 156.498 39.9347C156.609 39.8665 156.664 39.7557 156.664 39.6023V39.5724C156.664 39.2003 156.559 38.9119 156.349 38.7074C156.141 38.5028 155.832 38.4006 155.42 38.4006C154.991 38.4006 154.653 38.4957 154.405 38.6861C154.161 38.8736 153.992 39.0824 153.898 39.3125L152.701 39.0398C152.843 38.642 153.05 38.321 153.323 38.0767C153.599 37.8295 153.915 37.6506 154.273 37.5398C154.631 37.4261 155.008 37.3693 155.403 37.3693C155.664 37.3693 155.941 37.4006 156.234 37.4631C156.529 37.5227 156.805 37.6335 157.06 37.7955C157.319 37.9574 157.53 38.1889 157.695 38.4901C157.86 38.7884 157.942 39.1761 157.942 39.6534V44H156.698V43.1051H156.647C156.565 43.2699 156.441 43.4318 156.276 43.5909C156.111 43.75 155.9 43.8821 155.641 43.9872C155.383 44.0923 155.073 44.1449 154.712 44.1449ZM154.989 43.1222C155.341 43.1222 155.643 43.0526 155.893 42.9134C156.145 42.7741 156.337 42.5923 156.468 42.3679C156.601 42.1406 156.668 41.8977 156.668 41.6392V40.7955C156.623 40.8409 156.535 40.8835 156.404 40.9233C156.276 40.9602 156.13 40.9929 155.965 41.0213C155.8 41.0469 155.64 41.071 155.484 41.0938C155.327 41.1136 155.197 41.1307 155.091 41.1449C154.844 41.1761 154.618 41.2287 154.414 41.3026C154.212 41.3764 154.05 41.483 153.928 41.6222C153.809 41.7585 153.749 41.9403 153.749 42.1676C153.749 42.483 153.866 42.7216 154.099 42.8835C154.332 43.0426 154.628 43.1222 154.989 43.1222ZM159.397 46.4545V37.4545H160.642V38.5156H160.748C160.822 38.3793 160.929 38.2216 161.068 38.0426C161.207 37.8636 161.4 37.7074 161.647 37.5739C161.894 37.4375 162.221 37.3693 162.627 37.3693C163.156 37.3693 163.627 37.5028 164.042 37.7699C164.457 38.0369 164.782 38.4219 165.018 38.9247C165.257 39.4276 165.376 40.0327 165.376 40.7401C165.376 41.4474 165.258 42.054 165.022 42.5597C164.787 43.0625 164.463 43.4503 164.051 43.723C163.639 43.9929 163.169 44.1278 162.64 44.1278C162.242 44.1278 161.917 44.0611 161.664 43.9276C161.414 43.794 161.218 43.6378 161.076 43.4588C160.934 43.2798 160.825 43.1207 160.748 42.9815H160.671V46.4545H159.397ZM160.646 40.7273C160.646 41.1875 160.713 41.5909 160.846 41.9375C160.98 42.2841 161.173 42.5554 161.426 42.7514C161.679 42.9446 161.988 43.0412 162.355 43.0412C162.735 43.0412 163.054 42.9403 163.309 42.7386C163.565 42.5341 163.758 42.2571 163.889 41.9077C164.022 41.5582 164.089 41.1648 164.089 40.7273C164.089 40.2955 164.024 39.9077 163.893 39.5639C163.765 39.2202 163.572 38.9489 163.314 38.75C163.058 38.5511 162.738 38.4517 162.355 38.4517C161.985 38.4517 161.673 38.5469 161.417 38.7372C161.164 38.9276 160.973 39.1932 160.842 39.5341C160.711 39.875 160.646 40.2727 160.646 40.7273ZM166.561 46.4545V37.4545H167.806V38.5156H167.912C167.986 38.3793 168.093 38.2216 168.232 38.0426C168.371 37.8636 168.564 37.7074 168.811 37.5739C169.059 37.4375 169.385 37.3693 169.792 37.3693C170.32 37.3693 170.792 37.5028 171.206 37.7699C171.621 38.0369 171.946 38.4219 172.182 38.9247C172.421 39.4276 172.54 40.0327 172.54 40.7401C172.54 41.4474 172.422 42.054 172.186 42.5597C171.951 43.0625 171.627 43.4503 171.215 43.723C170.803 43.9929 170.333 44.1278 169.804 44.1278C169.407 44.1278 169.081 44.0611 168.829 43.9276C168.579 43.794 168.382 43.6378 168.24 43.4588C168.098 43.2798 167.989 43.1207 167.912 42.9815H167.836V46.4545H166.561ZM167.81 40.7273C167.81 41.1875 167.877 41.5909 168.01 41.9375C168.144 42.2841 168.337 42.5554 168.59 42.7514C168.843 42.9446 169.152 43.0412 169.519 43.0412C169.9 43.0412 170.218 42.9403 170.473 42.7386C170.729 42.5341 170.922 42.2571 171.053 41.9077C171.186 41.5582 171.253 41.1648 171.253 40.7273C171.253 40.2955 171.188 39.9077 171.057 39.5639C170.929 39.2202 170.736 38.9489 170.478 38.75C170.222 38.5511 169.902 38.4517 169.519 38.4517C169.15 38.4517 168.837 38.5469 168.581 38.7372C168.329 38.9276 168.137 39.1932 168.006 39.5341C167.875 39.875 167.81 40.2727 167.81 40.7273ZM176.483 44.1321C175.869 44.1321 175.334 43.9915 174.876 43.7102C174.419 43.429 174.064 43.0355 173.811 42.5298C173.558 42.0241 173.432 41.4332 173.432 40.7571C173.432 40.0781 173.558 39.4844 173.811 38.9759C174.064 38.4673 174.419 38.0724 174.876 37.7912C175.334 37.5099 175.869 37.3693 176.483 37.3693C177.096 37.3693 177.632 37.5099 178.089 37.7912C178.547 38.0724 178.902 38.4673 179.155 38.9759C179.407 39.4844 179.534 40.0781 179.534 40.7571C179.534 41.4332 179.407 42.0241 179.155 42.5298C178.902 43.0355 178.547 43.429 178.089 43.7102C177.632 43.9915 177.096 44.1321 176.483 44.1321ZM176.487 43.0625C176.885 43.0625 177.214 42.9574 177.476 42.7472C177.737 42.5369 177.93 42.2571 178.055 41.9077C178.183 41.5582 178.247 41.1733 178.247 40.7528C178.247 40.3352 178.183 39.9517 178.055 39.6023C177.93 39.25 177.737 38.9673 177.476 38.7543C177.214 38.5412 176.885 38.4347 176.487 38.4347C176.086 38.4347 175.754 38.5412 175.49 38.7543C175.228 38.9673 175.034 39.25 174.906 39.6023C174.781 39.9517 174.719 40.3352 174.719 40.7528C174.719 41.1733 174.781 41.5582 174.906 41.9077C175.034 42.2571 175.228 42.5369 175.49 42.7472C175.754 42.9574 176.086 43.0625 176.487 43.0625ZM180.714 44V37.4545H181.988V44H180.714ZM181.357 36.4446C181.136 36.4446 180.946 36.3707 180.786 36.223C180.63 36.0724 180.552 35.8935 180.552 35.6861C180.552 35.4759 180.63 35.2969 180.786 35.1491C180.946 34.9986 181.136 34.9233 181.357 34.9233C181.579 34.9233 181.768 34.9986 181.924 35.1491C182.083 35.2969 182.163 35.4759 182.163 35.6861C182.163 35.8935 182.083 36.0724 181.924 36.223C181.768 36.3707 181.579 36.4446 181.357 36.4446ZM184.734 40.1136V44H183.46V37.4545H184.683V38.5199H184.764C184.915 38.1733 185.15 37.8949 185.472 37.6847C185.795 37.4744 186.203 37.3693 186.695 37.3693C187.141 37.3693 187.531 37.4631 187.866 37.6506C188.202 37.8352 188.462 38.1108 188.646 38.4773C188.831 38.8437 188.923 39.2969 188.923 39.8366V44H187.649V39.9901C187.649 39.5156 187.525 39.1449 187.278 38.8778C187.031 38.608 186.692 38.473 186.26 38.473C185.964 38.473 185.702 38.5369 185.472 38.6648C185.244 38.7926 185.064 38.9801 184.93 39.2273C184.8 39.4716 184.734 39.767 184.734 40.1136ZM193.445 37.4545V38.4773H189.87V37.4545H193.445ZM190.829 35.8864H192.103V42.0781C192.103 42.3253 192.14 42.5114 192.214 42.6364C192.288 42.7585 192.383 42.8423 192.499 42.8878C192.619 42.9304 192.748 42.9517 192.887 42.9517C192.989 42.9517 193.079 42.9446 193.156 42.9304C193.232 42.9162 193.292 42.9048 193.335 42.8963L193.565 43.9489C193.491 43.9773 193.386 44.0057 193.249 44.0341C193.113 44.0653 192.942 44.0824 192.738 44.0852C192.403 44.0909 192.09 44.0312 191.8 43.9062C191.511 43.7812 191.276 43.5881 191.097 43.3267C190.918 43.0653 190.829 42.7372 190.829 42.3423V35.8864ZM194.613 44V37.4545H195.836V38.5199H195.917C196.053 38.1591 196.276 37.8778 196.586 37.6761C196.895 37.4716 197.266 37.3693 197.698 37.3693C198.135 37.3693 198.502 37.4716 198.797 37.6761C199.096 37.8807 199.316 38.1619 199.458 38.5199H199.526C199.682 38.1705 199.931 37.892 200.272 37.6847C200.613 37.4744 201.019 37.3693 201.49 37.3693C202.084 37.3693 202.569 37.5554 202.944 37.9276C203.321 38.2997 203.51 38.8608 203.51 39.6108V44H202.236V39.7301C202.236 39.2869 202.115 38.9659 201.874 38.767C201.633 38.5682 201.344 38.4688 201.009 38.4688C200.594 38.4688 200.272 38.5966 200.042 38.8523C199.812 39.1051 199.696 39.4304 199.696 39.8281V44H198.427V39.6491C198.427 39.294 198.316 39.0085 198.094 38.7926C197.873 38.5767 197.584 38.4688 197.229 38.4688C196.988 38.4688 196.765 38.5327 196.56 38.6605C196.358 38.7855 196.195 38.9602 196.07 39.1847C195.948 39.4091 195.887 39.669 195.887 39.9645V44H194.613ZM207.797 44.1321C207.152 44.1321 206.597 43.9943 206.131 43.7188C205.668 43.4403 205.31 43.0497 205.057 42.5469C204.807 42.0412 204.682 41.4489 204.682 40.7699C204.682 40.0994 204.807 39.5085 205.057 38.9972C205.31 38.4858 205.662 38.0866 206.114 37.7997C206.568 37.5128 207.1 37.3693 207.708 37.3693C208.077 37.3693 208.435 37.4304 208.781 37.5526C209.128 37.6747 209.439 37.8665 209.715 38.1278C209.99 38.3892 210.208 38.7287 210.367 39.1463C210.526 39.5611 210.605 40.0653 210.605 40.6591V41.1108H205.402V40.1562H209.357C209.357 39.821 209.289 39.5241 209.152 39.2656C209.016 39.0043 208.824 38.7983 208.577 38.6477C208.333 38.4972 208.046 38.4219 207.716 38.4219C207.358 38.4219 207.046 38.5099 206.779 38.6861C206.514 38.8594 206.31 39.0866 206.165 39.3679C206.023 39.6463 205.952 39.9489 205.952 40.2756V41.0213C205.952 41.4588 206.029 41.831 206.182 42.1378C206.338 42.4446 206.556 42.679 206.834 42.8409C207.112 43 207.438 43.0795 207.81 43.0795C208.051 43.0795 208.271 43.0455 208.47 42.9773C208.669 42.9062 208.841 42.8011 208.986 42.6619C209.131 42.5227 209.242 42.3509 209.318 42.1463L210.524 42.3636C210.428 42.7187 210.254 43.0298 210.004 43.2969C209.757 43.5611 209.446 43.767 209.071 43.9148C208.699 44.0597 208.274 44.1321 207.797 44.1321ZM213.051 40.1136V44H211.777V37.4545H213V38.5199H213.081C213.231 38.1733 213.467 37.8949 213.788 37.6847C214.112 37.4744 214.52 37.3693 215.011 37.3693C215.457 37.3693 215.848 37.4631 216.183 37.6506C216.518 37.8352 216.778 38.1108 216.963 38.4773C217.148 38.8437 217.24 39.2969 217.24 39.8366V44H215.966V39.9901C215.966 39.5156 215.842 39.1449 215.595 38.8778C215.348 38.608 215.008 38.473 214.577 38.473C214.281 38.473 214.018 38.5369 213.788 38.6648C213.561 38.7926 213.381 38.9801 213.247 39.2273C213.116 39.4716 213.051 39.767 213.051 40.1136ZM221.762 37.4545V38.4773H218.187V37.4545H221.762ZM219.146 35.8864H220.42V42.0781C220.42 42.3253 220.457 42.5114 220.531 42.6364C220.604 42.7585 220.7 42.8423 220.816 42.8878C220.935 42.9304 221.065 42.9517 221.204 42.9517C221.306 42.9517 221.396 42.9446 221.472 42.9304C221.549 42.9162 221.609 42.9048 221.651 42.8963L221.881 43.9489C221.808 43.9773 221.702 44.0057 221.566 44.0341C221.43 44.0653 221.259 44.0824 221.055 44.0852C220.719 44.0909 220.407 44.0312 220.117 43.9062C219.827 43.7812 219.593 43.5881 219.414 43.3267C219.235 43.0653 219.146 42.7372 219.146 42.3423V35.8864ZM225.863 44V37.4545H227.137V44H225.863ZM226.507 36.4446C226.285 36.4446 226.095 36.3707 225.936 36.223C225.779 36.0724 225.701 35.8935 225.701 35.6861C225.701 35.4759 225.779 35.2969 225.936 35.1491C226.095 34.9986 226.285 34.9233 226.507 34.9233C226.728 34.9233 226.917 34.9986 227.073 35.1491C227.232 35.2969 227.312 35.4759 227.312 35.6861C227.312 35.8935 227.232 36.0724 227.073 36.223C226.917 36.3707 226.728 36.4446 226.507 36.4446ZM233.514 39.0526L232.359 39.2571C232.311 39.1094 232.234 38.9687 232.129 38.8352C232.027 38.7017 231.888 38.5923 231.712 38.5071C231.535 38.4219 231.315 38.3793 231.051 38.3793C230.69 38.3793 230.389 38.4602 230.148 38.6222C229.906 38.7812 229.785 38.9872 229.785 39.2401C229.785 39.4588 229.866 39.6349 230.028 39.7685C230.19 39.902 230.452 40.0114 230.812 40.0966L231.852 40.3352C232.454 40.4744 232.903 40.6889 233.199 40.9787C233.494 41.2685 233.642 41.6449 233.642 42.108C233.642 42.5 233.528 42.8494 233.301 43.1562C233.077 43.4602 232.763 43.6989 232.359 43.8722C231.959 44.0455 231.494 44.1321 230.966 44.1321C230.233 44.1321 229.635 43.9759 229.172 43.6634C228.709 43.348 228.425 42.9006 228.319 42.321L229.551 42.1335C229.628 42.4545 229.785 42.6974 230.024 42.8622C230.263 43.0241 230.574 43.1051 230.957 43.1051C231.375 43.1051 231.709 43.0185 231.959 42.8452C232.209 42.669 232.334 42.4545 232.334 42.2017C232.334 41.9972 232.257 41.8253 232.104 41.6861C231.953 41.5469 231.721 41.4418 231.409 41.3707L230.301 41.1278C229.69 40.9886 229.239 40.767 228.946 40.4631C228.656 40.1591 228.511 39.7741 228.511 39.3082C228.511 38.9219 228.619 38.5838 228.835 38.294C229.051 38.0043 229.349 37.7784 229.73 37.6165C230.111 37.4517 230.547 37.3693 231.038 37.3693C231.746 37.3693 232.302 37.5227 232.709 37.8295C233.115 38.1335 233.383 38.5412 233.514 39.0526ZM41.6136 60.1321C40.9801 60.1321 40.4347 59.9886 39.9773 59.7017C39.5227 59.4119 39.1733 59.0128 38.929 58.5043C38.6847 57.9957 38.5625 57.4134 38.5625 56.7571C38.5625 56.0923 38.6875 55.5057 38.9375 54.9972C39.1875 54.4858 39.5398 54.0866 39.9943 53.7997C40.4489 53.5128 40.9844 53.3693 41.6009 53.3693C42.098 53.3693 42.5412 53.4616 42.9304 53.6463C43.3196 53.8281 43.6335 54.0838 43.8722 54.4134C44.1136 54.7429 44.2571 55.1278 44.3026 55.5682H43.0625C42.9943 55.2614 42.8381 54.9972 42.5938 54.7756C42.3523 54.554 42.0284 54.4432 41.6222 54.4432C41.267 54.4432 40.956 54.5369 40.6889 54.7244C40.4247 54.9091 40.2188 55.1733 40.071 55.517C39.9233 55.858 39.8494 56.2614 39.8494 56.7273C39.8494 57.2045 39.9219 57.6165 40.0668 57.9631C40.2116 58.3097 40.4162 58.5781 40.6804 58.7685C40.9474 58.9588 41.2614 59.054 41.6222 59.054C41.8636 59.054 42.0824 59.0099 42.2784 58.9219C42.4773 58.831 42.6435 58.7017 42.777 58.5341C42.9134 58.3665 43.0085 58.1648 43.0625 57.929H44.3026C44.2571 58.3523 44.1193 58.7301 43.8892 59.0625C43.6591 59.3949 43.3509 59.6562 42.9645 59.8466C42.581 60.0369 42.1307 60.1321 41.6136 60.1321ZM48.1801 60.1321C47.5665 60.1321 47.031 59.9915 46.5736 59.7102C46.1162 59.429 45.7611 59.0355 45.5082 58.5298C45.2554 58.0241 45.129 57.4332 45.129 56.7571C45.129 56.0781 45.2554 55.4844 45.5082 54.9759C45.7611 54.4673 46.1162 54.0724 46.5736 53.7912C47.031 53.5099 47.5665 53.3693 48.1801 53.3693C48.7938 53.3693 49.3293 53.5099 49.7867 53.7912C50.244 54.0724 50.5992 54.4673 50.852 54.9759C51.1048 55.4844 51.2313 56.0781 51.2313 56.7571C51.2313 57.4332 51.1048 58.0241 50.852 58.5298C50.5992 59.0355 50.244 59.429 49.7867 59.7102C49.3293 59.9915 48.7938 60.1321 48.1801 60.1321ZM48.1844 59.0625C48.5821 59.0625 48.9117 58.9574 49.173 58.7472C49.4344 58.5369 49.6276 58.2571 49.7526 57.9077C49.8804 57.5582 49.9443 57.1733 49.9443 56.7528C49.9443 56.3352 49.8804 55.9517 49.7526 55.6023C49.6276 55.25 49.4344 54.9673 49.173 54.7543C48.9117 54.5412 48.5821 54.4347 48.1844 54.4347C47.7838 54.4347 47.4514 54.5412 47.1872 54.7543C46.9259 54.9673 46.7313 55.25 46.6034 55.6023C46.4784 55.9517 46.4159 56.3352 46.4159 56.7528C46.4159 57.1733 46.4784 57.5582 46.6034 57.9077C46.7313 58.2571 46.9259 58.5369 47.1872 58.7472C47.4514 58.9574 47.7838 59.0625 48.1844 59.0625ZM52.4114 60V53.4545H53.6344V54.5199H53.7154C53.8517 54.1591 54.0747 53.8778 54.3844 53.6761C54.6941 53.4716 55.0648 53.3693 55.4966 53.3693C55.9341 53.3693 56.3006 53.4716 56.596 53.6761C56.8943 53.8807 57.1145 54.1619 57.2566 54.5199H57.3247C57.481 54.1705 57.7296 53.892 58.0705 53.6847C58.4114 53.4744 58.8176 53.3693 59.2892 53.3693C59.883 53.3693 60.3674 53.5554 60.7424 53.9276C61.1202 54.2997 61.3091 54.8608 61.3091 55.6108V60H60.035V55.7301C60.035 55.2869 59.9142 54.9659 59.6727 54.767C59.4313 54.5682 59.1429 54.4688 58.8077 54.4688C58.3929 54.4688 58.0705 54.5966 57.8404 54.8523C57.6102 55.1051 57.4952 55.4304 57.4952 55.8281V60H56.2253V55.6491C56.2253 55.294 56.1145 55.0085 55.8929 54.7926C55.6713 54.5767 55.383 54.4688 55.0279 54.4688C54.7864 54.4688 54.5634 54.5327 54.3588 54.6605C54.1571 54.7855 53.9938 54.9602 53.8688 55.1847C53.7466 55.4091 53.6855 55.669 53.6855 55.9645V60H52.4114ZM62.7747 60V53.4545H64.0489V60H62.7747ZM63.4182 52.4446C63.1966 52.4446 63.0063 52.3707 62.8472 52.223C62.6909 52.0724 62.6128 51.8935 62.6128 51.6861C62.6128 51.4759 62.6909 51.2969 62.8472 51.1491C63.0063 50.9986 63.1966 50.9233 63.4182 50.9233C63.6398 50.9233 63.8287 50.9986 63.985 51.1491C64.1441 51.2969 64.2236 51.4759 64.2236 51.6861C64.2236 51.8935 64.1441 52.0724 63.985 52.223C63.8287 52.3707 63.6398 52.4446 63.4182 52.4446ZM66.7951 56.1136V60H65.5209V53.4545H66.7439V54.5199H66.8249C66.9755 54.1733 67.2113 53.8949 67.5323 53.6847C67.8562 53.4744 68.2638 53.3693 68.7553 53.3693C69.2013 53.3693 69.5919 53.4631 69.9272 53.6506C70.2624 53.8352 70.5223 54.1108 70.707 54.4773C70.8917 54.8437 70.984 55.2969 70.984 55.8366V60H69.7098V55.9901C69.7098 55.5156 69.5863 55.1449 69.3391 54.8778C69.0919 54.608 68.7525 54.473 68.3206 54.473C68.0252 54.473 67.7624 54.5369 67.5323 54.6648C67.305 54.7926 67.1246 54.9801 66.9911 55.2273C66.8604 55.4716 66.7951 55.767 66.7951 56.1136ZM75.195 62.5909C74.6751 62.5909 74.2277 62.5227 73.8527 62.3864C73.4805 62.25 73.1765 62.0696 72.9408 61.8452C72.705 61.6207 72.5288 61.375 72.4123 61.108L73.5075 60.6562C73.5842 60.7812 73.6865 60.9134 73.8143 61.0526C73.945 61.1946 74.1212 61.3153 74.3427 61.4148C74.5672 61.5142 74.8555 61.5639 75.2078 61.5639C75.6908 61.5639 76.0899 61.446 76.4052 61.2102C76.7206 60.9773 76.8783 60.6051 76.8783 60.0938V58.8068H76.7973C76.7206 58.946 76.6098 59.1009 76.4649 59.2713C76.3229 59.4418 76.1268 59.5895 75.8768 59.7145C75.6268 59.8395 75.3015 59.902 74.901 59.902C74.3839 59.902 73.918 59.7812 73.5033 59.5398C73.0913 59.2955 72.7646 58.9361 72.5231 58.4616C72.2845 57.9844 72.1652 57.3977 72.1652 56.7017C72.1652 56.0057 72.2831 55.4091 72.5189 54.9119C72.7575 54.4148 73.0842 54.0341 73.499 53.7699C73.9138 53.5028 74.3839 53.3693 74.9095 53.3693C75.3158 53.3693 75.6439 53.4375 75.8939 53.5739C76.1439 53.7074 76.3385 53.8636 76.4777 54.0426C76.6197 54.2216 76.7291 54.3793 76.8058 54.5156H76.8996V53.4545H78.1481V60.1449C78.1481 60.7074 78.0175 61.169 77.7561 61.5298C77.4947 61.8906 77.141 62.1577 76.695 62.331C76.2518 62.5043 75.7518 62.5909 75.195 62.5909ZM75.1822 58.8452C75.5487 58.8452 75.8584 58.7599 76.1112 58.5895C76.3669 58.4162 76.5601 58.169 76.6908 57.848C76.8243 57.5241 76.891 57.1364 76.891 56.6847C76.891 56.2443 76.8257 55.8565 76.695 55.5213C76.5643 55.1861 76.3726 54.9247 76.1197 54.7372C75.8669 54.5469 75.5544 54.4517 75.1822 54.4517C74.7987 54.4517 74.4791 54.5511 74.2234 54.75C73.9677 54.946 73.7746 55.2131 73.6439 55.5511C73.516 55.8892 73.4521 56.267 73.4521 56.6847C73.4521 57.1136 73.5175 57.4901 73.6481 57.8139C73.7788 58.1378 73.972 58.3906 74.2277 58.5724C74.4862 58.7543 74.8044 58.8452 75.1822 58.8452ZM86.6948 57.2855V53.4545H87.9732V60H86.7204V58.8665H86.6522C86.5016 59.2159 86.2602 59.5071 85.9278 59.7401C85.5982 59.9702 85.1877 60.0852 84.6962 60.0852C84.2758 60.0852 83.9036 59.9929 83.5798 59.8082C83.2587 59.6207 83.0059 59.3438 82.8212 58.9773C82.6394 58.6108 82.5485 58.1577 82.5485 57.6179V53.4545H83.8227V57.4645C83.8227 57.9105 83.9462 58.2656 84.1934 58.5298C84.4406 58.794 84.7616 58.9261 85.1565 58.9261C85.3951 58.9261 85.6323 58.8665 85.8681 58.7472C86.1068 58.6278 86.3042 58.4474 86.4604 58.206C86.6195 57.9645 86.6977 57.6577 86.6948 57.2855ZM89.4431 62.4545V53.4545H90.6874V54.5156H90.794C90.8678 54.3793 90.9744 54.2216 91.1136 54.0426C91.2528 53.8636 91.446 53.7074 91.6931 53.5739C91.9403 53.4375 92.267 53.3693 92.6732 53.3693C93.2017 53.3693 93.6732 53.5028 94.088 53.7699C94.5028 54.0369 94.8281 54.4219 95.0639 54.9247C95.3025 55.4276 95.4218 56.0327 95.4218 56.7401C95.4218 57.4474 95.3039 58.054 95.0681 58.5597C94.8323 59.0625 94.5085 59.4503 94.0965 59.723C93.6846 59.9929 93.2144 60.1278 92.686 60.1278C92.2883 60.1278 91.963 60.0611 91.7102 59.9276C91.4602 59.794 91.2642 59.6378 91.1221 59.4588C90.9801 59.2798 90.8707 59.1207 90.794 58.9815H90.7173V62.4545H89.4431ZM90.6917 56.7273C90.6917 57.1875 90.7585 57.5909 90.892 57.9375C91.0255 58.2841 91.2187 58.5554 91.4715 58.7514C91.7244 58.9446 92.034 59.0412 92.4005 59.0412C92.7812 59.0412 93.0994 58.9403 93.3551 58.7386C93.6107 58.5341 93.8039 58.2571 93.9346 57.9077C94.0681 57.5582 94.1349 57.1648 94.1349 56.7273C94.1349 56.2955 94.0695 55.9077 93.9389 55.5639C93.811 55.2202 93.6178 54.9489 93.3593 54.75C93.1036 54.5511 92.784 54.4517 92.4005 54.4517C92.0312 54.4517 91.7187 54.5469 91.463 54.7372C91.2102 54.9276 91.0184 55.1932 90.8877 55.5341C90.757 55.875 90.6917 56.2727 90.6917 56.7273ZM102.298 60.1321C101.684 60.1321 101.149 59.9915 100.692 59.7102C100.234 59.429 99.879 59.0355 99.6262 58.5298C99.3733 58.0241 99.2469 57.4332 99.2469 56.7571C99.2469 56.0781 99.3733 55.4844 99.6262 54.9759C99.879 54.4673 100.234 54.0724 100.692 53.7912C101.149 53.5099 101.684 53.3693 102.298 53.3693C102.912 53.3693 103.447 53.5099 103.905 53.7912C104.362 54.0724 104.717 54.4673 104.97 54.9759C105.223 55.4844 105.349 56.0781 105.349 56.7571C105.349 57.4332 105.223 58.0241 104.97 58.5298C104.717 59.0355 104.362 59.429 103.905 59.7102C103.447 59.9915 102.912 60.1321 102.298 60.1321ZM102.302 59.0625C102.7 59.0625 103.03 58.9574 103.291 58.7472C103.552 58.5369 103.745 58.2571 103.87 57.9077C103.998 57.5582 104.062 57.1733 104.062 56.7528C104.062 56.3352 103.998 55.9517 103.87 55.6023C103.745 55.25 103.552 54.9673 103.291 54.7543C103.03 54.5412 102.7 54.4347 102.302 54.4347C101.902 54.4347 101.569 54.5412 101.305 54.7543C101.044 54.9673 100.849 55.25 100.721 55.6023C100.596 55.9517 100.534 56.3352 100.534 56.7528C100.534 57.1733 100.596 57.5582 100.721 57.9077C100.849 58.2571 101.044 58.5369 101.305 58.7472C101.569 58.9574 101.902 59.0625 102.302 59.0625ZM107.803 56.1136V60H106.529V53.4545H107.752V54.5199H107.833C107.984 54.1733 108.22 53.8949 108.541 53.6847C108.865 53.4744 109.272 53.3693 109.764 53.3693C110.21 53.3693 110.6 53.4631 110.936 53.6506C111.271 53.8352 111.531 54.1108 111.715 54.4773C111.9 54.8437 111.992 55.2969 111.992 55.8366V60H110.718V55.9901C110.718 55.5156 110.595 55.1449 110.347 54.8778C110.1 54.608 109.761 54.473 109.329 54.473C109.034 54.473 108.771 54.5369 108.541 54.6648C108.313 54.7926 108.133 54.9801 107.999 55.2273C107.869 55.4716 107.803 55.767 107.803 56.1136ZM116.065 52.4062V51.2727H122.819V52.4062H120.096V60H118.783V52.4062H116.065ZM125.241 56.1136V60H123.967V51.2727H125.224V54.5199H125.305C125.459 54.1676 125.693 53.8878 126.008 53.6804C126.324 53.473 126.736 53.3693 127.244 53.3693C127.693 53.3693 128.085 53.4616 128.42 53.6463C128.758 53.831 129.02 54.1065 129.204 54.473C129.392 54.8366 129.486 55.2912 129.486 55.8366V60H128.211V55.9901C128.211 55.5099 128.088 55.1378 127.841 54.8736C127.593 54.6065 127.25 54.473 126.809 54.473C126.508 54.473 126.238 54.5369 126 54.6648C125.764 54.7926 125.578 54.9801 125.441 55.2273C125.308 55.4716 125.241 55.767 125.241 56.1136ZM135.09 57.2855V53.4545H136.368V60H135.116V58.8665H135.047C134.897 59.2159 134.655 59.5071 134.323 59.7401C133.993 59.9702 133.583 60.0852 133.091 60.0852C132.671 60.0852 132.299 59.9929 131.975 59.8082C131.654 59.6207 131.401 59.3438 131.216 58.9773C131.035 58.6108 130.944 58.1577 130.944 57.6179V53.4545H132.218V57.4645C132.218 57.9105 132.341 58.2656 132.589 58.5298C132.836 58.794 133.157 58.9261 133.552 58.9261C133.79 58.9261 134.028 58.8665 134.263 58.7472C134.502 58.6278 134.699 58.4474 134.856 58.206C135.015 57.9645 135.093 57.6577 135.09 57.2855ZM137.838 60V53.4545H139.07V54.4943H139.138C139.257 54.142 139.468 53.8651 139.769 53.6634C140.073 53.4588 140.416 53.3565 140.8 53.3565C140.88 53.3565 140.973 53.3594 141.081 53.3651C141.192 53.3707 141.279 53.3778 141.341 53.3864V54.6051C141.29 54.5909 141.199 54.5753 141.068 54.5582C140.938 54.5384 140.807 54.5284 140.676 54.5284C140.375 54.5284 140.107 54.5923 139.871 54.7202C139.638 54.8452 139.453 55.0199 139.317 55.2443C139.181 55.4659 139.112 55.7187 139.112 56.0028V60H137.838ZM147.107 55.0526L145.952 55.2571C145.903 55.1094 145.827 54.9687 145.722 54.8352C145.619 54.7017 145.48 54.5923 145.304 54.5071C145.128 54.4219 144.908 54.3793 144.643 54.3793C144.283 54.3793 143.982 54.4602 143.74 54.6222C143.499 54.7812 143.378 54.9872 143.378 55.2401C143.378 55.4588 143.459 55.6349 143.621 55.7685C143.783 55.902 144.044 56.0114 144.405 56.0966L145.445 56.3352C146.047 56.4744 146.496 56.6889 146.791 56.9787C147.087 57.2685 147.234 57.6449 147.234 58.108C147.234 58.5 147.121 58.8494 146.893 59.1562C146.669 59.4602 146.355 59.6989 145.952 59.8722C145.551 60.0455 145.087 60.1321 144.558 60.1321C143.825 60.1321 143.227 59.9759 142.764 59.6634C142.301 59.348 142.017 58.9006 141.912 58.321L143.143 58.1335C143.22 58.4545 143.378 58.6974 143.616 58.8622C143.855 59.0241 144.166 59.1051 144.55 59.1051C144.967 59.1051 145.301 59.0185 145.551 58.8452C145.801 58.669 145.926 58.4545 145.926 58.2017C145.926 57.9972 145.849 57.8253 145.696 57.6861C145.545 57.5469 145.314 57.4418 145.001 57.3707L143.893 57.1278C143.283 56.9886 142.831 56.767 142.538 56.4631C142.249 56.1591 142.104 55.7741 142.104 55.3082C142.104 54.9219 142.212 54.5838 142.428 54.294C142.643 54.0043 142.942 53.7784 143.322 53.6165C143.703 53.4517 144.139 53.3693 144.631 53.3693C145.338 53.3693 145.895 53.5227 146.301 53.8295C146.707 54.1335 146.976 54.5412 147.107 55.0526ZM150.843 60.1278C150.315 60.1278 149.843 59.9929 149.429 59.723C149.017 59.4503 148.693 59.0625 148.457 58.5597C148.224 58.054 148.108 57.4474 148.108 56.7401C148.108 56.0327 148.226 55.4276 148.461 54.9247C148.7 54.4219 149.027 54.0369 149.441 53.7699C149.856 53.5028 150.326 53.3693 150.852 53.3693C151.258 53.3693 151.585 53.4375 151.832 53.5739C152.082 53.7074 152.275 53.8636 152.412 54.0426C152.551 54.2216 152.659 54.3793 152.736 54.5156H152.812V51.2727H154.086V60H152.842V58.9815H152.736C152.659 59.1207 152.548 59.2798 152.403 59.4588C152.261 59.6378 152.065 59.794 151.815 59.9276C151.565 60.0611 151.241 60.1278 150.843 60.1278ZM151.125 59.0412C151.491 59.0412 151.801 58.9446 152.054 58.7514C152.309 58.5554 152.503 58.2841 152.633 57.9375C152.767 57.5909 152.834 57.1875 152.834 56.7273C152.834 56.2727 152.768 55.875 152.637 55.5341C152.507 55.1932 152.315 54.9276 152.062 54.7372C151.809 54.5469 151.497 54.4517 151.125 54.4517C150.741 54.4517 150.422 54.5511 150.166 54.75C149.91 54.9489 149.717 55.2202 149.586 55.5639C149.459 55.9077 149.395 56.2955 149.395 56.7273C149.395 57.1648 149.46 57.5582 149.591 57.9077C149.721 58.2571 149.914 58.5341 150.17 58.7386C150.429 58.9403 150.747 59.0412 151.125 59.0412ZM157.568 60.1449C157.153 60.1449 156.778 60.0682 156.443 59.9148C156.107 59.7585 155.842 59.5327 155.646 59.2372C155.453 58.9418 155.356 58.5795 155.356 58.1506C155.356 57.7812 155.427 57.4773 155.569 57.2386C155.711 57 155.903 56.8111 156.144 56.6719C156.386 56.5327 156.656 56.4276 156.954 56.3565C157.252 56.2855 157.556 56.2315 157.866 56.1946C158.258 56.1491 158.576 56.1122 158.82 56.0838C159.065 56.0526 159.242 56.0028 159.353 55.9347C159.464 55.8665 159.519 55.7557 159.519 55.6023V55.5724C159.519 55.2003 159.414 54.9119 159.204 54.7074C158.997 54.5028 158.687 54.4006 158.275 54.4006C157.846 54.4006 157.508 54.4957 157.261 54.6861C157.016 54.8736 156.847 55.0824 156.754 55.3125L155.556 55.0398C155.698 54.642 155.906 54.321 156.178 54.0767C156.454 53.8295 156.771 53.6506 157.129 53.5398C157.487 53.4261 157.863 53.3693 158.258 53.3693C158.519 53.3693 158.796 53.4006 159.089 53.4631C159.384 53.5227 159.66 53.6335 159.916 53.7955C160.174 53.9574 160.386 54.1889 160.551 54.4901C160.715 54.7884 160.798 55.1761 160.798 55.6534V60H159.553V59.1051H159.502C159.42 59.2699 159.296 59.4318 159.132 59.5909C158.967 59.75 158.755 59.8821 158.497 59.9872C158.238 60.0923 157.928 60.1449 157.568 60.1449ZM157.845 59.1222C158.197 59.1222 158.498 59.0526 158.748 58.9134C159.001 58.7741 159.193 58.5923 159.323 58.3679C159.457 58.1406 159.524 57.8977 159.524 57.6392V56.7955C159.478 56.8409 159.39 56.8835 159.259 56.9233C159.132 56.9602 158.985 56.9929 158.82 57.0213C158.656 57.0469 158.495 57.071 158.339 57.0938C158.183 57.1136 158.052 57.1307 157.947 57.1449C157.7 57.1761 157.474 57.2287 157.269 57.3026C157.068 57.3764 156.906 57.483 156.784 57.6222C156.664 57.7585 156.605 57.9403 156.605 58.1676C156.605 58.483 156.721 58.7216 156.954 58.8835C157.187 59.0426 157.484 59.1222 157.845 59.1222ZM162.824 62.4545C162.633 62.4545 162.46 62.4389 162.304 62.4077C162.148 62.3793 162.031 62.348 161.954 62.3139L162.261 61.2699C162.494 61.3324 162.702 61.3594 162.883 61.3509C163.065 61.3423 163.226 61.2741 163.365 61.1463C163.507 61.0185 163.632 60.8097 163.74 60.5199L163.898 60.0852L161.503 53.4545H162.866L164.524 58.5341H164.592L166.25 53.4545H167.618L164.92 60.8736C164.795 61.2145 164.636 61.5028 164.443 61.7386C164.25 61.9773 164.02 62.1563 163.753 62.2756C163.486 62.3949 163.176 62.4545 162.824 62.4545ZM174.562 53.4545V54.4773H170.987V53.4545H174.562ZM171.946 51.8864H173.22V58.0781C173.22 58.3253 173.257 58.5114 173.331 58.6364C173.405 58.7585 173.5 58.8423 173.616 58.8878C173.735 58.9304 173.865 58.9517 174.004 58.9517C174.106 58.9517 174.196 58.9446 174.272 58.9304C174.349 58.9162 174.409 58.9048 174.451 58.8963L174.682 59.9489C174.608 59.9773 174.503 60.0057 174.366 60.0341C174.23 60.0653 174.059 60.0824 173.855 60.0852C173.52 60.0909 173.207 60.0312 172.917 59.9062C172.628 59.7812 172.393 59.5881 172.214 59.3267C172.035 59.0653 171.946 58.7372 171.946 58.3423V51.8864ZM177.144 56.1136V60H175.87V51.2727H177.127V54.5199H177.208C177.362 54.1676 177.596 53.8878 177.911 53.6804C178.227 53.473 178.639 53.3693 179.147 53.3693C179.596 53.3693 179.988 53.4616 180.323 53.6463C180.661 53.831 180.923 54.1065 181.107 54.473C181.295 54.8366 181.389 55.2912 181.389 55.8366V60H180.114V55.9901C180.114 55.5099 179.991 55.1378 179.744 54.8736C179.497 54.6065 179.153 54.473 178.712 54.473C178.411 54.473 178.141 54.5369 177.903 54.6648C177.667 54.7926 177.481 54.9801 177.345 55.2273C177.211 55.4716 177.144 55.767 177.144 56.1136ZM185.668 60.1321C185.023 60.1321 184.468 59.9943 184.002 59.7188C183.539 59.4403 183.181 59.0497 182.928 58.5469C182.678 58.0412 182.553 57.4489 182.553 56.7699C182.553 56.0994 182.678 55.5085 182.928 54.9972C183.181 54.4858 183.533 54.0866 183.985 53.7997C184.439 53.5128 184.97 53.3693 185.578 53.3693C185.948 53.3693 186.306 53.4304 186.652 53.5526C186.999 53.6747 187.31 53.8665 187.585 54.1278C187.861 54.3892 188.078 54.7287 188.237 55.1463C188.397 55.5611 188.476 56.0653 188.476 56.6591V57.1108H183.273V56.1562H187.227C187.227 55.821 187.159 55.5241 187.023 55.2656C186.887 55.0043 186.695 54.7983 186.448 54.6477C186.203 54.4972 185.916 54.4219 185.587 54.4219C185.229 54.4219 184.916 54.5099 184.649 54.6861C184.385 54.8594 184.181 55.0866 184.036 55.3679C183.894 55.6463 183.823 55.9489 183.823 56.2756V57.0213C183.823 57.4588 183.899 57.831 184.053 58.1378C184.209 58.4446 184.426 58.679 184.705 58.8409C184.983 59 185.308 59.0795 185.681 59.0795C185.922 59.0795 186.142 59.0455 186.341 58.9773C186.54 58.9062 186.712 58.8011 186.857 58.6619C187.002 58.5227 187.112 58.3509 187.189 58.1463L188.395 58.3636C188.298 58.7187 188.125 59.0298 187.875 59.2969C187.628 59.5611 187.317 59.767 186.942 59.9148C186.57 60.0597 186.145 60.1321 185.668 60.1321ZM195.875 51.2727V60H194.554V52.5938H194.503L192.415 53.9574V52.696L194.593 51.2727H195.875ZM200.896 51.1534C201.285 51.1562 201.669 51.2273 202.047 51.3665C202.424 51.5057 202.765 51.733 203.069 52.0483C203.376 52.3636 203.62 52.7898 203.802 53.3267C203.987 53.8608 204.081 54.5256 204.084 55.321C204.084 56.0852 204.007 56.7656 203.853 57.3622C203.7 57.956 203.48 58.4574 203.193 58.8665C202.909 59.2756 202.564 59.5866 202.157 59.7997C201.751 60.0128 201.294 60.1193 200.785 60.1193C200.265 60.1193 199.804 60.017 199.4 59.8125C198.997 59.608 198.669 59.3253 198.416 58.9645C198.163 58.6009 198.005 58.1832 197.943 57.7116H199.243C199.328 58.0866 199.501 58.3906 199.763 58.6236C200.027 58.8537 200.368 58.9688 200.785 58.9688C201.424 58.9688 201.923 58.6903 202.281 58.1335C202.639 57.5739 202.819 56.7926 202.822 55.7898H202.754C202.606 56.0341 202.422 56.2443 202.2 56.4205C201.981 56.5966 201.736 56.733 201.463 56.8295C201.19 56.9261 200.899 56.9744 200.589 56.9744C200.086 56.9744 199.629 56.8509 199.217 56.6037C198.805 56.3565 198.477 56.017 198.233 55.5852C197.988 55.1534 197.866 54.6605 197.866 54.1065C197.866 53.5554 197.991 53.0554 198.241 52.6065C198.494 52.1577 198.846 51.8026 199.298 51.5412C199.753 51.277 200.285 51.1477 200.896 51.1534ZM200.9 52.2614C200.568 52.2614 200.268 52.3437 200.001 52.5085C199.737 52.6705 199.528 52.8906 199.375 53.169C199.221 53.4446 199.145 53.7514 199.145 54.0895C199.145 54.4276 199.218 54.7344 199.366 55.0099C199.517 55.2827 199.721 55.5 199.98 55.6619C200.241 55.821 200.539 55.9006 200.875 55.9006C201.125 55.9006 201.358 55.8523 201.574 55.7557C201.789 55.6591 201.978 55.5256 202.14 55.3551C202.302 55.1818 202.429 54.9858 202.52 54.767C202.611 54.5483 202.656 54.3182 202.656 54.0767C202.656 53.7557 202.579 53.4574 202.426 53.1818C202.275 52.9062 202.068 52.6847 201.804 52.517C201.539 52.3466 201.238 52.2614 200.9 52.2614ZM208.453 53.4545V54.4773H204.878V53.4545H208.453ZM205.837 51.8864H207.111V58.0781C207.111 58.3253 207.148 58.5114 207.222 58.6364C207.296 58.7585 207.391 58.8423 207.507 58.8878C207.627 58.9304 207.756 58.9517 207.895 58.9517C207.997 58.9517 208.087 58.9446 208.164 58.9304C208.24 58.9162 208.3 58.9048 208.343 58.8963L208.573 59.9489C208.499 59.9773 208.394 60.0057 208.257 60.0341C208.121 60.0653 207.95 60.0824 207.746 60.0852C207.411 60.0909 207.098 60.0312 206.808 59.9062C206.519 59.7812 206.284 59.5881 206.105 59.3267C205.926 59.0653 205.837 58.7372 205.837 58.3423V51.8864ZM211.035 56.1136V60H209.761V51.2727H211.018V54.5199H211.099C211.253 54.1676 211.487 53.8878 211.802 53.6804C212.118 53.473 212.53 53.3693 213.038 53.3693C213.487 53.3693 213.879 53.4616 214.214 53.6463C214.552 53.831 214.814 54.1065 214.998 54.473C215.186 54.8366 215.28 55.2912 215.28 55.8366V60H214.006V55.9901C214.006 55.5099 213.882 55.1378 213.635 54.8736C213.388 54.6065 213.044 54.473 212.604 54.473C212.302 54.473 212.033 54.5369 211.794 54.6648C211.558 54.7926 211.372 54.9801 211.236 55.2273C211.102 55.4716 211.035 55.767 211.035 56.1136Z" fill="#181842"/>
</g>
<defs>
<filter id="filter0_d_201_260" x="0" y="0" width="279" height="112" filterUnits="userSpaceOnUse" color-interpolation-filters="sRGB">
<feFlood flood-opacity="0" result="BackgroundImageFix"/>
<feColorMatrix in="SourceAlpha" type="matrix" values="0 0 0 0 0 0 0 0 0 0 0 0 0 0 0 0 0 0 127 0" result="hardAlpha"/>
<feOffset dx="2" dy="8"/>
<feGaussianBlur stdDeviation="12"/>
<feComposite in2="hardAlpha" operator="out"/>
<feColorMatrix type="matrix" values="0 0 0 0 1 0 0 0 0 0.368627 0 0 0 0 0 0 0 0 0.15 0"/>
<feBlend mode="normal" in2="BackgroundImageFix" result="effect1_dropShadow_201_260"/>
<feBlend mode="normal" in="SourceGraphic" in2="effect1_dropShadow_201_260" result="shape"/>
</filter>
</defs>
</svg>
