<svg width="180" height="92" viewBox="0 0 180 92" fill="none" xmlns="http://www.w3.org/2000/svg">
<rect width="178" height="88" rx="24" fill="white" fill-opacity="0.36"/>
<g filter="url(#filter0_d_201_266)">
<rect x="12" y="12" width="154" height="64" rx="16" fill="#FF6913" shape-rendering="crispEdges"/>
<path d="M47.44 34.1H45.108L42.028 44.44L41.874 45.32H41.742L41.654 44.44L39.586 34.1H36.264L39.96 49.5H43.062L46.054 39.842L46.186 38.94H46.318L46.45 39.842L49.486 49.5H52.588L56.284 34.1H52.962L50.938 44.264L50.806 45.386H50.674L50.498 44.264L47.44 34.1ZM61.8784 38.28C58.7764 38.28 56.3564 40.81 56.3564 44C56.3564 47.19 58.6884 49.72 61.6584 49.72C63.0664 49.72 64.2104 49.17 64.8924 48.4L65.0244 48.444V49.5H68.1924V38.5H65.0244V39.182L64.9144 39.248C64.2104 38.676 63.2644 38.28 61.8784 38.28ZM62.2744 47.124C60.7564 47.124 59.5244 45.804 59.5244 44C59.5244 42.174 60.7564 40.876 62.2744 40.876C63.3964 40.876 64.3424 41.162 65.0244 41.624V45.628C64.4524 46.728 63.3964 47.124 62.2744 47.124ZM69.854 40.92H71.46V45.518C71.46 48.136 73.198 49.61 75.552 49.61C76.366 49.61 77.29 49.434 77.906 49.148L77.466 46.618C77.092 46.75 76.586 46.838 76.08 46.838C75.222 46.838 74.628 46.398 74.628 45.342V40.92H77.356V38.5H74.628V34.98H71.46V38.5H69.854V40.92ZM81.7241 44C81.7241 42.196 83.0661 40.876 84.7601 40.876C85.7061 40.876 86.4101 41.074 86.9821 41.316L87.5981 38.852C86.6521 38.368 85.7721 38.28 84.7601 38.28C81.3721 38.28 78.7321 40.81 78.7321 44C78.7321 47.19 81.3721 49.72 84.7601 49.72C85.7721 49.72 86.6521 49.588 87.5981 49.104L86.9821 46.618C86.3221 47.014 85.5741 47.124 84.7601 47.124C83.0661 47.124 81.7241 45.826 81.7241 44ZM89.1633 49.5H92.3313V42.064C92.8593 41.382 93.8053 40.876 94.8173 40.876C95.9833 40.876 96.9513 41.58 96.9513 43.252V49.5H100.119V43.076C100.119 39.886 98.3153 38.28 96.1373 38.28C94.4873 38.28 93.2113 38.918 92.4633 39.798L92.3313 39.754V33.44H89.1633V49.5Z" fill="white"/>
<path d="M135.426 54.4266C135.173 54.4266 134.92 54.3333 134.72 54.1333C134.333 53.7466 134.333 53.1066 134.72 52.7199C139.533 47.9066 139.533 40.08 134.72 35.28C134.333 34.8933 134.333 34.2533 134.72 33.8667C135.106 33.48 135.746 33.48 136.133 33.8667C141.72 39.4533 141.72 48.5466 136.133 54.1333C135.933 54.3333 135.68 54.4266 135.426 54.4266Z" fill="#F7BF4E"/>
<path d="M116.573 54.4266C116.32 54.4266 116.066 54.3333 115.866 54.1333C110.28 48.5466 110.28 39.4533 115.866 33.8667C116.253 33.48 116.893 33.48 117.28 33.8667C117.666 34.2533 117.666 34.8933 117.28 35.28C112.466 40.0933 112.466 47.9199 117.28 52.7199C117.666 53.1066 117.666 53.7466 117.28 54.1333C117.08 54.3333 116.826 54.4266 116.573 54.4266Z" fill="#F7BF4E"/>
<path d="M126 58.2799C124.333 58.2666 122.746 57.9999 121.266 57.4799C120.746 57.2932 120.466 56.7199 120.653 56.1999C120.84 55.6799 121.4 55.3999 121.933 55.5866C123.213 56.0266 124.573 56.2666 126.013 56.2666C127.44 56.2666 128.813 56.0266 130.08 55.5866C130.6 55.4132 131.173 55.6799 131.36 56.1999C131.546 56.7199 131.266 57.2932 130.746 57.4799C129.253 57.9999 127.666 58.2799 126 58.2799Z" fill="#F7BF4E"/>
<path d="M130.4 32.4534C130.293 32.4534 130.173 32.44 130.067 32.4C128.787 31.96 127.413 31.72 125.987 31.72C124.56 31.72 123.2 31.96 121.92 32.4C121.4 32.5734 120.827 32.3068 120.64 31.7868C120.453 31.2668 120.733 30.6934 121.253 30.5067C122.733 29.9867 124.333 29.72 125.987 29.72C127.64 29.72 129.24 29.9867 130.72 30.5067C131.24 30.6934 131.52 31.2668 131.333 31.7868C131.2 32.2001 130.813 32.4534 130.4 32.4534Z" fill="#F7BF4E"/>
<path d="M124.08 50.3467C123.494 50.3467 122.934 50.2 122.44 49.92C121.294 49.2534 120.654 47.9467 120.654 46.24V41.7734C120.654 40.0667 121.28 38.76 122.44 38.0934C123.587 37.4267 125.04 37.5333 126.52 38.3867L130.387 40.6134C131.867 41.4667 132.68 42.6667 132.68 44C132.68 45.3334 131.867 46.5333 130.387 47.3867L126.52 49.6134C125.68 50.1067 124.84 50.3467 124.08 50.3467ZM124.08 39.6533C123.84 39.6533 123.614 39.7067 123.44 39.8133C122.947 40.1067 122.654 40.8134 122.654 41.76V46.2267C122.654 47.1733 122.934 47.8934 123.44 48.1734C123.934 48.4534 124.694 48.3467 125.52 47.88L129.387 45.6533C130.214 45.1733 130.68 44.5734 130.68 44C130.68 43.4267 130.214 42.8267 129.387 42.3467L125.52 40.1201C124.987 39.8134 124.494 39.6533 124.08 39.6533Z" fill="#F7BF4E"/>
</g>
<defs>
<filter id="filter0_d_201_266" x="2" y="4" width="178" height="88" filterUnits="userSpaceOnUse" color-interpolation-filters="sRGB">
<feFlood flood-opacity="0" result="BackgroundImageFix"/>
<feColorMatrix in="SourceAlpha" type="matrix" values="0 0 0 0 0 0 0 0 0 0 0 0 0 0 0 0 0 0 127 0" result="hardAlpha"/>
<feOffset dx="2" dy="4"/>
<feGaussianBlur stdDeviation="6"/>
<feComposite in2="hardAlpha" operator="out"/>
<feColorMatrix type="matrix" values="0 0 0 0 0.956863 0 0 0 0 0.682353 0 0 0 0 0.231373 0 0 0 0.5 0"/>
<feBlend mode="normal" in2="BackgroundImageFix" result="effect1_dropShadow_201_266"/>
<feBlend mode="normal" in="SourceGraphic" in2="effect1_dropShadow_201_266" result="shape"/>
</filter>
</defs>
</svg>
